<?xml version="1.0" encoding="UTF-8"?>
<svg version="1.1" xmlns="http://www.w3.org/2000/svg" width="512" height="512">
<path d="M0 0 C0.74630141 -0.00581376 1.49260283 -0.01162753 2.26151943 -0.01761746 C4.77651775 -0.03228152 7.29054987 -0.018303 9.80554199 -0.00457001 C11.6210607 -0.0091764 13.43657569 -0.01552756 15.25208282 -0.02347898 C20.25211632 -0.04023135 25.25184582 -0.03189918 30.25188065 -0.01953411 C35.6398249 -0.01051005 41.02771567 -0.02444018 46.41564941 -0.0354538 C56.97499475 -0.05327192 67.53422658 -0.04938438 78.09357643 -0.03780323 C86.67278604 -0.02878212 95.25196377 -0.02753917 103.83117676 -0.0318985 C105.05063885 -0.03251143 106.27010095 -0.03312436 107.52651644 -0.03375587 C110.00356739 -0.03503473 112.48061833 -0.03633158 114.95766926 -0.03764623 C138.20350517 -0.04906168 161.44927807 -0.0359232 184.69510365 -0.01444477 C204.65577612 0.00342707 224.61635557 0.00032323 244.57702637 -0.01811981 C267.73775516 -0.03950949 290.89842867 -0.04796296 314.05916595 -0.03567076 C316.52727762 -0.03439651 318.99538929 -0.03313903 321.46350098 -0.0318985 C323.28519955 -0.03097285 323.28519955 -0.03097285 325.14370012 -0.03002849 C333.71597142 -0.02656988 342.28820775 -0.03241493 350.86047363 -0.04181671 C361.30239191 -0.05301695 371.74418986 -0.05003831 382.18609428 -0.02869374 C387.51718649 -0.0181567 392.84807783 -0.01410658 398.1791687 -0.02729034 C403.05460708 -0.03916523 407.92965746 -0.03273308 412.80506039 -0.01138014 C414.57350243 -0.00689318 416.34197692 -0.00922691 418.11039829 -0.01888329 C420.50563091 -0.03096417 422.89951668 -0.01865855 425.29467773 0 C425.98893828 -0.00936466 426.68319883 -0.01872933 427.39849758 -0.02837777 C430.67833574 0.02304887 432.40882342 0.32711873 435.07555485 2.29764223 C437.46191727 5.64648203 437.19676442 9.0128322 437.14904785 12.97211456 C437.15715233 14.25082428 437.15715233 14.25082428 437.16542053 15.55536652 C437.17792232 18.37171963 437.16140735 21.18705337 437.14343262 24.00336456 C437.14358757 25.9610474 437.14507596 27.91873055 437.14784241 29.87641144 C437.14922705 33.97876298 437.13665734 38.08076517 437.1138916 42.18305206 C437.08550687 47.44246791 437.08824346 52.70130322 437.10098171 57.96076202 C437.1079355 62.00308951 437.10015303 66.04528273 437.08772469 70.08759308 C437.08320727 72.02687821 437.08287592 73.96617773 437.08679008 75.90546417 C437.08969934 78.6154817 437.0732091 81.32469823 437.0513916 84.03461456 C437.05814407 85.23791412 437.05814407 85.23791412 437.06503296 86.46552277 C437.02162456 89.70939043 436.8710645 92.09081788 435.30958557 94.97016144 C431.88477117 98.12910056 427.85496242 97.64600105 423.48298836 97.63479233 C422.37584664 97.63787128 422.37584664 97.63787128 421.24633843 97.64101243 C418.75353406 97.6467024 416.2607846 97.64522273 413.76797485 97.64380646 C411.97053554 97.64638894 410.17309681 97.64940177 408.37565887 97.65280986 C403.42100093 97.66089668 398.46635747 97.66267036 393.51169372 97.66340733 C388.17417367 97.66525493 382.83666119 97.67280073 377.49914551 97.67954254 C365.82167493 97.69313778 354.14420777 97.69915228 342.46673059 97.7035532 C335.17983458 97.70631331 327.89293989 97.7105502 320.60604477 97.71505737 C300.44335831 97.72725102 280.28067293 97.73755052 260.11798286 97.74093246 C258.18145986 97.74126181 258.18145986 97.74126181 256.20581519 97.74159782 C254.2645816 97.74192523 254.2645816 97.74192523 252.28413117 97.74225926 C249.66154806 97.74270274 247.03896495 97.7431493 244.41638184 97.74359894 C242.46503186 97.74393108 242.46503186 97.74393108 240.47426067 97.74426994 C219.38400398 97.74821992 198.29378179 97.76567963 177.20353843 97.78895846 C155.5670705 97.81264811 133.93061991 97.82513321 112.29413879 97.82630038 C100.13931199 97.82721843 87.98453017 97.83300331 75.82971573 97.85112 C65.48188634 97.86648873 55.13411582 97.87166054 44.78627719 97.86338189 C39.50369745 97.85946407 34.22123639 97.86046001 28.93867111 97.87443924 C24.10638844 97.88711035 19.27431443 97.88604079 14.44203232 97.87384853 C12.69036028 97.8718797 10.9386738 97.87502418 9.1870221 97.88369289 C6.8122158 97.89470497 4.43815645 97.88735515 2.06337166 97.87530136 C1.03511866 97.88669415 1.03511866 97.88669415 -0.01390713 97.8983171 C-4.27972938 97.8513374 -6.95223059 97.09824706 -10.35266113 94.50336456 C-11.95854406 91.29159871 -11.51793889 87.79077881 -11.52966309 84.26166534 C-11.53623428 83.40948425 -11.54280548 82.55730316 -11.54957581 81.6792984 C-11.56932595 78.85242379 -11.58097425 76.0256023 -11.59094238 73.19867706 C-11.59501791 72.23463833 -11.59909344 71.27059959 -11.60329247 70.27734756 C-11.62415898 65.1764192 -11.63845906 60.0755178 -11.64782715 54.97455597 C-11.6589022 49.69937796 -11.69331306 44.42462056 -11.73299885 39.14959145 C-11.75910937 35.09872387 -11.76751395 31.04795743 -11.77110863 26.99701309 C-11.77598779 25.05211161 -11.7876394 23.10721503 -11.80614662 21.16239548 C-11.83042345 18.44253926 -11.82959436 15.72378361 -11.82263184 13.00385284 C-11.83544189 12.19851105 -11.84825195 11.39316925 -11.8614502 10.56342316 C-11.83057525 7.25951326 -11.72675585 5.02882208 -9.78171825 2.29680109 C-6.55876384 -0.08279061 -3.85482157 -0.05199649 0 0 Z " fill="#6480C6" transform="translate(43.3526611328125,270.4966354370117)"/>
<path d="M0 0 C3.53639697 2.48300213 4.76364597 4.05458386 5.8125 8.25 C5 12 5 12 -3 21 C97.98 21 198.96 21 303 21 C299.04 16.545 299.04 16.545 295 12 C294.1875 8.25 294.1875 8.25 295 5 C297.51103647 1.42367533 299.04272488 0.21674154 303.3125 -0.75 C307.09619049 0.01956417 307.92324529 0.50795132 310.64453125 2.984375 C311.34247803 3.61827148 312.0404248 4.25216797 312.75952148 4.90527344 C313.49887939 5.5965332 314.2382373 6.28779297 315 7 C315.75933838 7.70930664 316.51867676 8.41861328 317.30102539 9.14941406 C319.68388764 11.40861034 322.03203854 13.69949748 324.375 16 C325.18066406 16.76828125 325.98632812 17.5365625 326.81640625 18.328125 C334.4957795 25.8917288 334.4957795 25.8917288 335 32 C333.05874022 36.80573658 330.40725526 39.95745928 326.74609375 43.58203125 C326.24457291 44.08167892 325.74305206 44.5813266 325.22633362 45.09611511 C324.17335977 46.14240855 323.11681513 47.18511959 322.05688477 48.22436523 C320.43168873 49.81819913 318.81760073 51.42265134 317.20507812 53.02929688 C308.3024162 61.85255666 308.3024162 61.85255666 303.6875 62.375 C300 62 300 62 297.0625 59.9375 C295 57 295 57 294.1875 53.75 C295 50 295 50 303 41 C202.02 41 101.04 41 -3 41 C-0.69 43.31 1.62 45.62 4 48 C5.56935594 51.13871188 5.35201103 53.53855822 5 57 C2.48896353 60.57632467 0.95727512 61.78325846 -3.3125 62.75 C-11.77481796 61.02885058 -18.52341974 51.63064208 -24.4375 45.6875 C-25.25154297 44.87732422 -26.06558594 44.06714844 -26.90429688 43.23242188 C-27.67708984 42.45833984 -28.44988281 41.68425781 -29.24609375 40.88671875 C-30.29301392 39.83810669 -30.29301392 39.83810669 -31.36108398 38.76831055 C-34.09790064 35.81541868 -34.5290655 33.21890736 -34.46557617 29.19116211 C-33.89054661 26.4848746 -32.92045757 25.34213557 -31.05078125 23.31640625 C-30.41543457 22.62482422 -29.78008789 21.93324219 -29.12548828 21.22070312 C-25.35967318 17.28619197 -21.54801441 13.40413659 -17.6875 9.5625 C-16.87732422 8.74845703 -16.06714844 7.93441406 -15.23242188 7.09570312 C-14.45833984 6.32291016 -13.68425781 5.55011719 -12.88671875 4.75390625 C-12.18764404 4.05595947 -11.48856934 3.3580127 -10.76831055 2.63891602 C-7.35434276 -0.52523775 -4.5672397 -0.46446505 0 0 Z " fill="#D2DCE5" transform="translate(106,154)"/>
<path d="M0 0 C2.77632363 2.49432609 3.00418468 4.04096297 3.38768005 7.79492188 C3.40852621 9.35273467 3.41279525 10.91082226 3.40405273 12.46875 C3.41091599 13.32122314 3.41777924 14.17369629 3.42485046 15.05200195 C3.44314303 17.868171 3.43927787 20.68378433 3.43359375 23.5 C3.43815403 25.45768414 3.44345914 27.41536668 3.44947815 29.37304688 C3.45841382 33.47532659 3.45598051 37.57741168 3.44604492 41.6796875 C3.43454844 46.93917709 3.45477489 52.19799599 3.48396206 57.45739746 C3.50229812 61.49971795 3.50203689 65.54187689 3.49632454 69.58422852 C3.49617104 71.52352846 3.50223894 73.46283916 3.51461601 75.40209961 C3.52947712 78.1122461 3.51888567 80.82114291 3.50170898 83.53125 C3.51137695 84.33344971 3.52104492 85.13564941 3.53100586 85.9621582 C3.48315021 89.56399994 3.31201362 91.59146407 1.09364319 94.49609375 C-1.17433499 96.12522835 -2.23944529 96.54313367 -5 96.5 C-5.66 96.5103125 -6.32 96.520625 -7 96.53125 C-10.03147946 95.72601327 -11.09430192 94.49523124 -13 92 C-13.38942932 89.05140109 -13.53722473 86.47816925 -13.50170898 83.53125 C-13.50981346 82.25254028 -13.50981346 82.25254028 -13.51808167 80.94799805 C-13.53058346 78.13164494 -13.51406848 75.3163112 -13.49609375 72.5 C-13.4962487 70.54231716 -13.49773709 68.58463401 -13.50050354 66.62695312 C-13.50188818 62.52460159 -13.48931847 58.42259939 -13.46655273 54.3203125 C-13.438168 49.06089665 -13.4409046 43.80206134 -13.45364285 38.54260254 C-13.46059663 34.50027505 -13.45281416 30.45808183 -13.44038582 26.41577148 C-13.4358684 24.47648636 -13.43553705 22.53718683 -13.43945122 20.59790039 C-13.44236047 17.88788286 -13.42587024 15.17866634 -13.40405273 12.46875 C-13.40855438 11.66655029 -13.41305603 10.86435059 -13.41769409 10.0378418 C-13.37428569 6.79397413 -13.22372563 4.41254668 -11.6622467 1.53320312 C-8.02645161 -1.82033783 -4.5184524 -1.04892645 0 0 Z " fill="#B8C3D5" transform="translate(477,137)"/>
<path d="M0 0 C2.77632363 2.49432609 3.00418468 4.04096297 3.38768005 7.79492188 C3.40852621 9.35273467 3.41279525 10.91082226 3.40405273 12.46875 C3.41091599 13.32122314 3.41777924 14.17369629 3.42485046 15.05200195 C3.44314303 17.868171 3.43927787 20.68378433 3.43359375 23.5 C3.43815403 25.45768414 3.44345914 27.41536668 3.44947815 29.37304688 C3.45841382 33.47532659 3.45598051 37.57741168 3.44604492 41.6796875 C3.43454844 46.93917709 3.45477489 52.19799599 3.48396206 57.45739746 C3.50229812 61.49971795 3.50203689 65.54187689 3.49632454 69.58422852 C3.49617104 71.52352846 3.50223894 73.46283916 3.51461601 75.40209961 C3.52947712 78.1122461 3.51888567 80.82114291 3.50170898 83.53125 C3.51137695 84.33344971 3.52104492 85.13564941 3.53100586 85.9621582 C3.48315021 89.56399994 3.31201362 91.59146407 1.09364319 94.49609375 C-1.17433499 96.12522835 -2.23944529 96.54313367 -5 96.5 C-5.66 96.5103125 -6.32 96.520625 -7 96.53125 C-10.03147946 95.72601327 -11.09430192 94.49523124 -13 92 C-13.38942932 89.05140109 -13.53722473 86.47816925 -13.50170898 83.53125 C-13.50981346 82.25254028 -13.50981346 82.25254028 -13.51808167 80.94799805 C-13.53058346 78.13164494 -13.51406848 75.3163112 -13.49609375 72.5 C-13.4962487 70.54231716 -13.49773709 68.58463401 -13.50050354 66.62695312 C-13.50188818 62.52460159 -13.48931847 58.42259939 -13.46655273 54.3203125 C-13.438168 49.06089665 -13.4409046 43.80206134 -13.45364285 38.54260254 C-13.46059663 34.50027505 -13.45281416 30.45808183 -13.44038582 26.41577148 C-13.4358684 24.47648636 -13.43553705 22.53718683 -13.43945122 20.59790039 C-13.44236047 17.88788286 -13.42587024 15.17866634 -13.40405273 12.46875 C-13.40855438 11.66655029 -13.41305603 10.86435059 -13.41769409 10.0378418 C-13.37428569 6.79397413 -13.22372563 4.41254668 -11.6622467 1.53320312 C-8.02645161 -1.82033783 -4.5184524 -1.04892645 0 0 Z " fill="#B8C3D5" transform="translate(45,137)"/>
<path d="M0 0 C5.28 0 10.56 0 16 0 C16.06900495 4.75111878 16.12869507 9.50048771 16.16479492 14.25170898 C16.17984876 15.86667789 16.20029648 17.48160613 16.22631836 19.09643555 C16.26285286 21.42246555 16.27976015 23.74795341 16.29296875 26.07421875 C16.30845261 26.79212082 16.32393646 27.51002289 16.33988953 28.24967957 C16.34136614 32.68310969 15.73671423 35.47899113 13 39 C10.11138291 40.44430855 8.20352299 40.37688506 5 40 C1.34928257 37.24434457 0.11962566 35.79673264 -0.56762695 31.21948242 C-0.56684241 29.76457099 -0.5390037 28.30949596 -0.48828125 26.85546875 C-0.48120651 26.08568192 -0.47413177 25.31589508 -0.46684265 24.52278137 C-0.43896925 22.07667697 -0.37625137 19.63290616 -0.3125 17.1875 C-0.28740768 15.52412173 -0.26459613 13.86070738 -0.24414062 12.19726562 C-0.19342534 8.1298998 -0.09558199 4.06754472 0 0 Z " fill="#5064AA" transform="translate(408,271)"/>
<path d="M0 0 C5.28 0 10.56 0 16 0 C16.06900495 4.75111878 16.12869507 9.50048771 16.16479492 14.25170898 C16.17984876 15.86667789 16.20029648 17.48160613 16.22631836 19.09643555 C16.26285286 21.42246555 16.27976015 23.74795341 16.29296875 26.07421875 C16.30845261 26.79212082 16.32393646 27.51002289 16.33988953 28.24967957 C16.34136614 32.68310969 15.73671423 35.47899113 13 39 C10.11138291 40.44430855 8.20352299 40.37688506 5 40 C1.34928257 37.24434457 0.11962566 35.79673264 -0.56762695 31.21948242 C-0.56684241 29.76457099 -0.5390037 28.30949596 -0.48828125 26.85546875 C-0.48120651 26.08568192 -0.47413177 25.31589508 -0.46684265 24.52278137 C-0.43896925 22.07667697 -0.37625137 19.63290616 -0.3125 17.1875 C-0.28740768 15.52412173 -0.26459613 13.86070738 -0.24414062 12.19726562 C-0.19342534 8.1298998 -0.09558199 4.06754472 0 0 Z " fill="#5064AA" transform="translate(344,271)"/>
<path d="M0 0 C5.28 0 10.56 0 16 0 C16.06900495 4.75111878 16.12869507 9.50048771 16.16479492 14.25170898 C16.17984876 15.86667789 16.20029648 17.48160613 16.22631836 19.09643555 C16.26285286 21.42246555 16.27976015 23.74795341 16.29296875 26.07421875 C16.30845261 26.79212082 16.32393646 27.51002289 16.33988953 28.24967957 C16.34136614 32.68310969 15.73671423 35.47899113 13 39 C10.11138291 40.44430855 8.20352299 40.37688506 5 40 C1.34928257 37.24434457 0.11962566 35.79673264 -0.56762695 31.21948242 C-0.56684241 29.76457099 -0.5390037 28.30949596 -0.48828125 26.85546875 C-0.48120651 26.08568192 -0.47413177 25.31589508 -0.46684265 24.52278137 C-0.43896925 22.07667697 -0.37625137 19.63290616 -0.3125 17.1875 C-0.28740768 15.52412173 -0.26459613 13.86070738 -0.24414062 12.19726562 C-0.19342534 8.1298998 -0.09558199 4.06754472 0 0 Z " fill="#5064AA" transform="translate(280,271)"/>
<path d="M0 0 C5.28 0 10.56 0 16 0 C16.06900495 4.75111878 16.12869507 9.50048771 16.16479492 14.25170898 C16.17984876 15.86667789 16.20029648 17.48160613 16.22631836 19.09643555 C16.26285286 21.42246555 16.27976015 23.74795341 16.29296875 26.07421875 C16.30845261 26.79212082 16.32393646 27.51002289 16.33988953 28.24967957 C16.34136614 32.68310969 15.73671423 35.47899113 13 39 C10.11138291 40.44430855 8.20352299 40.37688506 5 40 C1.34928257 37.24434457 0.11962566 35.79673264 -0.56762695 31.21948242 C-0.56684241 29.76457099 -0.5390037 28.30949596 -0.48828125 26.85546875 C-0.48120651 26.08568192 -0.47413177 25.31589508 -0.46684265 24.52278137 C-0.43896925 22.07667697 -0.37625137 19.63290616 -0.3125 17.1875 C-0.28740768 15.52412173 -0.26459613 13.86070738 -0.24414062 12.19726562 C-0.19342534 8.1298998 -0.09558199 4.06754472 0 0 Z " fill="#5064AA" transform="translate(216,271)"/>
<path d="M0 0 C5.28 0 10.56 0 16 0 C16.06900495 4.75111878 16.12869507 9.50048771 16.16479492 14.25170898 C16.17984876 15.86667789 16.20029648 17.48160613 16.22631836 19.09643555 C16.26285286 21.42246555 16.27976015 23.74795341 16.29296875 26.07421875 C16.30845261 26.79212082 16.32393646 27.51002289 16.33988953 28.24967957 C16.34136614 32.68310969 15.73671423 35.47899113 13 39 C10.11138291 40.44430855 8.20352299 40.37688506 5 40 C1.34928257 37.24434457 0.11962566 35.79673264 -0.56762695 31.21948242 C-0.56684241 29.76457099 -0.5390037 28.30949596 -0.48828125 26.85546875 C-0.48120651 26.08568192 -0.47413177 25.31589508 -0.46684265 24.52278137 C-0.43896925 22.07667697 -0.37625137 19.63290616 -0.3125 17.1875 C-0.28740768 15.52412173 -0.26459613 13.86070738 -0.24414062 12.19726562 C-0.19342534 8.1298998 -0.09558199 4.06754472 0 0 Z " fill="#5064AA" transform="translate(152,271)"/>
<path d="M0 0 C5.28 0 10.56 0 16 0 C16.06900495 4.75111878 16.12869507 9.50048771 16.16479492 14.25170898 C16.17984876 15.86667789 16.20029648 17.48160613 16.22631836 19.09643555 C16.26285286 21.42246555 16.27976015 23.74795341 16.29296875 26.07421875 C16.30845261 26.79212082 16.32393646 27.51002289 16.33988953 28.24967957 C16.34136614 32.68310969 15.73671423 35.47899113 13 39 C10.11138291 40.44430855 8.20352299 40.37688506 5 40 C1.34928257 37.24434457 0.11962566 35.79673264 -0.56762695 31.21948242 C-0.56684241 29.76457099 -0.5390037 28.30949596 -0.48828125 26.85546875 C-0.48120651 26.08568192 -0.47413177 25.31589508 -0.46684265 24.52278137 C-0.43896925 22.07667697 -0.37625137 19.63290616 -0.3125 17.1875 C-0.28740768 15.52412173 -0.26459613 13.86070738 -0.24414062 12.19726562 C-0.19342534 8.1298998 -0.09558199 4.06754472 0 0 Z " fill="#5064AA" transform="translate(88,271)"/>
<path d="M0 0 C5.28 0 10.56 0 16 0 C16.08120751 2.89640118 16.14059421 5.79050912 16.1875 8.6875 C16.21263672 9.50412109 16.23777344 10.32074219 16.26367188 11.16210938 C16.32170486 15.94015822 16.14903871 19.13423093 13 23 C10.11138291 24.44430855 8.20352299 24.37688506 5 24 C2.13015655 21.95429526 0.25194611 20.38040027 -0.40014648 16.80761719 C-0.49206194 14.25027965 -0.43638468 11.74333625 -0.3125 9.1875 C-0.28994141 8.30384766 -0.26738281 7.42019531 -0.24414062 6.50976562 C-0.18547428 4.3391109 -0.09579979 2.1693331 0 0 Z " fill="#5064AA" transform="translate(440,271)"/>
<path d="M0 0 C5.28 0 10.56 0 16 0 C16.08120751 2.89640118 16.14059421 5.79050912 16.1875 8.6875 C16.21263672 9.50412109 16.23777344 10.32074219 16.26367188 11.16210938 C16.32170486 15.94015822 16.14903871 19.13423093 13 23 C10.11138291 24.44430855 8.20352299 24.37688506 5 24 C2.13015655 21.95429526 0.25194611 20.38040027 -0.40014648 16.80761719 C-0.49206194 14.25027965 -0.43638468 11.74333625 -0.3125 9.1875 C-0.28994141 8.30384766 -0.26738281 7.42019531 -0.24414062 6.50976562 C-0.18547428 4.3391109 -0.09579979 2.1693331 0 0 Z " fill="#5064AA" transform="translate(376,271)"/>
<path d="M0 0 C5.28 0 10.56 0 16 0 C16.08120751 2.89640118 16.14059421 5.79050912 16.1875 8.6875 C16.21263672 9.50412109 16.23777344 10.32074219 16.26367188 11.16210938 C16.32170486 15.94015822 16.14903871 19.13423093 13 23 C10.11138291 24.44430855 8.20352299 24.37688506 5 24 C2.13015655 21.95429526 0.25194611 20.38040027 -0.40014648 16.80761719 C-0.49206194 14.25027965 -0.43638468 11.74333625 -0.3125 9.1875 C-0.28994141 8.30384766 -0.26738281 7.42019531 -0.24414062 6.50976562 C-0.18547428 4.3391109 -0.09579979 2.1693331 0 0 Z " fill="#5064AA" transform="translate(312,271)"/>
<path d="M0 0 C5.28 0 10.56 0 16 0 C16.08120751 2.89640118 16.14059421 5.79050912 16.1875 8.6875 C16.21263672 9.50412109 16.23777344 10.32074219 16.26367188 11.16210938 C16.32170486 15.94015822 16.14903871 19.13423093 13 23 C10.11138291 24.44430855 8.20352299 24.37688506 5 24 C2.13015655 21.95429526 0.25194611 20.38040027 -0.40014648 16.80761719 C-0.49206194 14.25027965 -0.43638468 11.74333625 -0.3125 9.1875 C-0.28994141 8.30384766 -0.26738281 7.42019531 -0.24414062 6.50976562 C-0.18547428 4.3391109 -0.09579979 2.1693331 0 0 Z " fill="#5064AA" transform="translate(248,271)"/>
<path d="M0 0 C5.28 0 10.56 0 16 0 C16.08120751 2.89640118 16.14059421 5.79050912 16.1875 8.6875 C16.21263672 9.50412109 16.23777344 10.32074219 16.26367188 11.16210938 C16.32170486 15.94015822 16.14903871 19.13423093 13 23 C10.11138291 24.44430855 8.20352299 24.37688506 5 24 C2.13015655 21.95429526 0.25194611 20.38040027 -0.40014648 16.80761719 C-0.49206194 14.25027965 -0.43638468 11.74333625 -0.3125 9.1875 C-0.28994141 8.30384766 -0.26738281 7.42019531 -0.24414062 6.50976562 C-0.18547428 4.3391109 -0.09579979 2.1693331 0 0 Z " fill="#5064AA" transform="translate(184,271)"/>
<path d="M0 0 C5.28 0 10.56 0 16 0 C16.08120751 2.89640118 16.14059421 5.79050912 16.1875 8.6875 C16.21263672 9.50412109 16.23777344 10.32074219 16.26367188 11.16210938 C16.32170486 15.94015822 16.14903871 19.13423093 13 23 C10.11138291 24.44430855 8.20352299 24.37688506 5 24 C2.13015655 21.95429526 0.25194611 20.38040027 -0.40014648 16.80761719 C-0.49206194 14.25027965 -0.43638468 11.74333625 -0.3125 9.1875 C-0.28994141 8.30384766 -0.26738281 7.42019531 -0.24414062 6.50976562 C-0.18547428 4.3391109 -0.09579979 2.1693331 0 0 Z " fill="#5064AA" transform="translate(120,271)"/>
<path d="M0 0 C5.28 0 10.56 0 16 0 C16.08120751 2.89640118 16.14059421 5.79050912 16.1875 8.6875 C16.21263672 9.50412109 16.23777344 10.32074219 16.26367188 11.16210938 C16.32170486 15.94015822 16.14903871 19.13423093 13 23 C10.11138291 24.44430855 8.20352299 24.37688506 5 24 C2.13015655 21.95429526 0.25194611 20.38040027 -0.40014648 16.80761719 C-0.49206194 14.25027965 -0.43638468 11.74333625 -0.3125 9.1875 C-0.28994141 8.30384766 -0.26738281 7.42019531 -0.24414062 6.50976562 C-0.18547428 4.3391109 -0.09579979 2.1693331 0 0 Z " fill="#5064AA" transform="translate(56,271)"/>
</svg>
